<svg xmlns="http://www.w3.org/2000/svg" viewBox="0 0 1490.05 218.01"><defs><style>.cls-1{fill-rule:evenodd;}</style></defs><g id="Layer_2" data-name="Layer 2"><g id="Layer_1-2" data-name="Layer 1"><g id="Layer_2-2" data-name="Layer 2"><g id="Layer_2-2-2" data-name="Layer 2-2"><g id="Layer_1-2-2" data-name="Layer 1-2"><path class="cls-1" d="M197.1,196.05c5.37-11.56,10.69-23,15.51-33.41q19.89-42.93,39.73-85.86c.28-.6,2.94-5.63,3-6.25.18-3.15-6.39-6.69-11.05.76-6.92,12.56-13.23,25.48-19.33,38.46-11.4,24.24-22.25,48.75-33.42,73.07-4.89,10.65-6.42,13.22-6.42,13.22h-48.9c9.23-19.63,18.42-39.06,27.18-57.67q13-27.63,26.07-55.24c-.46-.25,23.19-48.77-1.4-.74-4.5,7.57-9,15.11-13.51,22.69-17,28.67-34.68,59.68-51.8,88.24-1.25,2.09-1.08,2.66-3.26,2.71-14.89,0-47.85-.13-50.37,0,7.36-21.11,25-71.27,24.77-71.4-5.56,9.18-13.65,24.47-19.3,33.6C67.91,169,61.05,179.6,54.41,190.35c-2.37,3.84-2.21,5.56-7.06,5.6-12.87.08-28.84.08-41.62-.06-6.27.14-6.87.25-4.33-5.89C18.7,141.9,37.64,89.06,54.72,40.85c1.66-4.69,2-5.22,6.92-5.22H97.28c-9.27,25.56-31.95,87.81-31.57,88C70.4,115.89,79.43,99,84.08,91.18,93.56,75.3,103,59.38,112.52,43.57c1-1.72,3.27-7.9,4.88-7.94,11.69-.35,24,0,37.35,0C146,59.55,123.63,121.15,124,121.32c6.73-11.35,19.21-35,26.07-46.31,6.45-10.61,13.34-20.52,20.3-30.79,1.49-2.2,4.76-8.59,7.48-8.59h28.54c4,0,5.68.21,5.82-.33C215.91,27,229.21.3,231,.22h46.16c-5.76,12.47-15.44,31.54-21.84,45.39,3.59-1.64,6.26-2.72,8.79-4,9.09-4.79,18.92-4.84,28.69-4,10.93.91,18.11,11.7,13.94,21.73-10,24.07-20.52,47.94-31.13,71.75-8.77,19.7-18.08,39.16-26.88,58.85-1.86,4.16-2.42,6.17-7.12,6.17H197.08Z"/><path class="cls-1" d="M974.12,35.63C966.84,53.69,960,71.76,953.26,88.49c-9.43,23.41-18.94,46.78-28.1,70.29-.94,2.43-3.71,7.89,1,7.89s6.49-.63,7.68-3.12c5.63-11.78,11.11-25.13,16-37.24C961.42,97.85,971.24,68.6,984.63,41c1.3-2.69,2.76-5.31,2.76-5.31h45.82l-1.71,5h9.64c2.17-5.47,7.42-19.25,9.94-24.56,0,0,47.84,0,49.2.13-2.91,7.63-6.46,17-9.28,24.44,3.28.08,8.06.12,12.92.07,1.07,0,1.91-5,2.9-5,15.23-.07,30.44.12,47.37.12-2.17,6.24-3.86,11.62-5.9,16.87-17.46,45-37,95-54.44,140.06-1.45,3.75-3.44,3.38-10.31,3.2-23.93.16-50.62.16-74.36.16a31.87,31.87,0,0,1-10.74-1.58c-8.65-2.68-12.22-11.38-9.35-20,5.43-16.31,11.52-32.43,17.74-48.46,7.47-19.26,15.66-39,23.49-58.46-6.37,0-7.11-.09-7.11-.09-10.67,26.65-22.7,57-33.3,83.68-5.07,12.75-10.26,25.45-15.12,38.28-1.75,4.61-1.46,6.76-6.38,6.61-12-.35-43.29.16-46,0,.7-2.92,1.35-6.21,2.15-9.53-2.53,1.6-4.28,2.64-6,3.78-9.95,6.71-21.09,8.13-32.6,6.74-13.05-1.57-19.39-12.91-14.65-27.25,4.37-13.23,9.77-26.13,15-39.07,11.36-28.08,26-62.45,37.08-90.64,1.88-4.78,0-4.45,8.12-4.45,11.76,0,24,.06,34.43,0A62,62,0,0,1,974.12,35.63Zm117,32c-6.3-.11-11.67-.11-11.67-.11-5.86,16.54-14.9,39.05-21.28,55.42-5,12.93-9.73,26-14.79,38.92-1.5,3.83-.29,5.11,3.41,5.59,4,.51,5.72-1.16,7.13-4.82,6.77-17.65,13.91-35.16,20.83-52.76,5.47-13.9,10.81-27.85,16.38-42.23Z"/><path class="cls-1" d="M639.62,169.55c-11.63,17-28.5,25.55-48.41,27.44a104.3,104.3,0,0,1-30.48-1.64c-17.51-3.61-23.89-15-18.91-31.93,2.25-7.68,5.78-15,9-22.37.64-1.45,2.71-3.19,4.15-3.22,12.83-.25,25.66-.14,40.11-.14-1.8,4.6-3.26,8.27-4.67,12-1.56,4-3.34,8-4.53,12.2-1.42,5,.79,7.19,5.81,5.73,2.32-.68,5-2.32,6.15-4.31a69.73,69.73,0,0,0,7.2-15.94c.65-2.36-1.15-6.4-3.15-8.28-4.91-4.6-10.54-8.43-15.94-12.49-17.47-13.13-19.86-21.6-11.89-42.18.39-1,6.22-12.72,8.17-16.57,8.27-16.35,22.16-25.49,39.3-29.78a88,88,0,0,1,42-.55c16.64,3.93,23.23,15.71,17.51,31.83q-6.69,19.07-27,19.08H630.09l4.34-11.57c1.34-3.57,4.73-9.35,4.39-12.14-3.31,0-5.54-.55-7.35.1-7.94,2.86-9.49,10.54-11.18,17.28-.73,2.91,1.51,7.6,3.88,10,3.92,4,9.07,6.72,13.65,10,3.7,2.69,7.53,5.25,10.95,8.26,7.15,6.3,10.1,14,7,23.48L639.63,169.5ZM717,.23c15.86,0,30.54.06,46.9.06-6,14.33-12.55,30.68-18.71,45.43,4.18-2.26,7.07-3.94,10.06-5.41,11.38-5.61,23.24-7.08,35.32-2.9,8,2.77,12.06,9.45,9.66,17.55A348.27,348.27,0,0,1,787.5,89.82c-10.54,25.33-21.07,50.68-32.45,75.64-9.11,20-24.55,31.88-47.46,32-9.9,0-15.08-2.27-22.37-11.58-.41.06-3.06,7.74-3.18,7.93-1.48,2.35,1.09,2.35-8,2.35H631.67ZM695.65,164c-2,3.76,8.52,2.64,9.46,1.24a20.62,20.62,0,0,0,2.78-4.84c3.87-7.77,7.22-15.81,10.56-23.83q13.68-32.79,27.09-65.7c.75-1.84,2.38-4.94,0-6.43-3-2-6.37.67-8,2.43-2.6,2.73-4.11,6.61-5.65,10.19q-13.59,31.48-26.95,63.08c-3.22,7.62-5.56,14.36-9.28,23.86Z"/><path class="cls-1" d="M1218.26,46.83l4.85-11.19h48.18c-4.57,12.19-8.78,23.79-13,35.13q-20.32,53.85-40.67,107.68c-4.62,12.23-9.13,24.5-13.89,36.67-.49,1.24-.73,2.7-1.47,2.69-15.86-.22-33.84.2-50.45.2,4.25-11.14,8.16-21.38,12.72-33.36-2.9,2.2-4.42,3.23-5.8,4.42-10.4,9-22.81,9.76-35.23,7.25-12.76-2.58-18.06-15.83-13-30.66q6.29-18.53,13.39-36.76,12.64-32.55,25.82-64.91c3.58-8.75,8.79-16.4,17-21.83,19.41-12.82,34.14-11.89,51.59,4.66Zm-9.15,20.25c.63-1.74,1.31-2.94-2-3.8-1.68-.44-4.38-.42-5.34.63a29.14,29.14,0,0,0-5.63,8.61q-9.72,23.81-18.93,47.82c-5.11,13.38-9.94,26.88-14.63,40.41-.63,1.82-3,5.93.45,6.26,4.25,1.55,6-.82,7.35-2.53,2.66-3.3,4.47-7.4,6-11.41q12.16-30.9,24-61.94c3-7.88,5.74-15.88,8.68-24.06Z"/><path class="cls-1" d="M1324.48,35.63c-7,18.84-13.51,35.86-19.94,53.18-8.86,23.86-17.75,47.7-26.39,71.63-.65,1.81-.1,5.57,1,6.15,1.65.84,5,.35,6.48-.92a19,19,0,0,0,4.83-7.5c11.49-30.31,22.8-60.69,34.23-91,3.52-9.33,7.13-18.64,10.92-27.86.63-1.53,1.62-3.65,1.62-3.65h49.41c-3.87,10.81-7.17,20.33-10.74,30q-18.27,49.62-36.65,99.21c-3.24,8.75-6.52,17.49-10.18,26.07-.75,1.77-1.76,5.12-4.59,5.12-14.89,0-30.1.07-44.93,0h-2.44c.48-2.19,1.36-6.44,2.1-9.81-2.37,1.51-3.92,2.43-5.39,3.46-10.23,7.17-21.8,8.69-33.73,7.12-13.45-1.77-19.84-13.78-15-28.42,5.19-15.69,11-31.21,16.74-46.69,9.31-24.88,22.38-58.53,31.65-83.42,1.08-2.89.76-2.65,2.46-2.65h48.49Z"/><path class="cls-1" d="M1471.54,127.51c-3.67,9-6.52,16.56-10,24.61-9,20.46-24.1,34.56-45.23,41.58a79.3,79.3,0,0,1-47,.8c-16.7-4.68-25.25-18.94-21-35.93,3.33-13.23,8.13-26.13,12.77-39,5.32-14.7,10.47-29.53,17-43.72,13-28.27,35.53-42.46,66.75-42.58,9.55,0,19.16-.79,28.18,3.75,12.47,6.27,19.13,16,16.39,29.6-3.23,16.13-17,52.51-17,52.51h-60c-4.87,12.81-10.45,28.47-14.77,41.47-.58,1.75-.19,5.42.66,5.73a8.26,8.26,0,0,0,6.57-.48,16.15,16.15,0,0,0,5.83-6.62c3.64-8.38,9.83-23,12.48-31.75h48.47Zm-50.43-34.33H1433c1.48-5,6.7-20.22,8-25.23.44-1.73,2.27-4.11-.52-5.66-4.37-2.28-6.55.59-7.34,2.14-4.13,8.15-8.36,20.08-12.05,28.74Z"/><path class="cls-1" d="M800,198.4c-8.36,0-16.48-1.91-24.26-4.34-13.39-4.18-19-16.07-14.36-31.24,4.47-14.52,10.13-28.71,15.91-42.78,6.12-14.9,12.19-29.92,19.73-44.12,14-26.33,36.07-40.68,66.44-40.6,7.32,0,14.87.29,21.92,2,19.5,4.85,25.82,19.82,20.17,35.38A893.53,893.53,0,0,1,868.17,161C857.67,182.42,830.56,199.1,800,198.4Zm9.1-35c-1.27,4.12,7.83,4.57,9.73.67,1.52-3.13.49-.84,1.65-3.4C826,148.39,831.24,136,836.36,123.5q10.9-26.56,21.4-53.3a9.29,9.29,0,0,0,.67-6.88c-2-3.39-6.43,1.26-7.8,2.83a38.06,38.06,0,0,0-5.82,10.12c-9.85,23.2-32.94,79.63-35.72,87.13Z"/><path class="cls-1" d="M498.23,127.51c-13.33,44-46,76.57-96.38,69.39-22.27-3.18-32-19.74-23-41.42,11.11-27,22.58-53.94,36.34-79.6,17.28-32.24,48.33-43.53,81.17-39.11C517.54,39.62,526.94,54,520.79,74.2c-4.36,14.3-21.46,46-21.46,46l-57.19-.09c-4.5,11.33-11.75,28.16-16.37,39.45-1,2.39-1.23,2.77-2.45,6.31,5.14,1.5,9.41.68,11.1-1.5,3.82-4.91,6.46-10.76,9.43-16.31,1.64-3.07,9.07-20.51,9.07-20.51h45.31ZM454.32,93.18h10.79c4.38-8,8.34-18.22,11.87-26.65.24-.24-.64-1.51-1.63-2.17-4.52-2.39-6.55,1.29-7.62,3.08C463,75.45,454.32,93.18,454.32,93.18Z"/><path class="cls-1" d="M387.15,127.51c-12.18,33.88-31,61.32-67.49,68.67-10.6,2.13-22.36,1.72-33-.39-19.19-3.8-27-18-20.15-36.33,6.92-18.49,15.24-36.5,23.77-54.33,6.46-13.5,13-27.26,21.64-39.35,13.76-19.18,33.7-28.43,57.38-28.64,8-.07,16.25.11,23.92,2C406.67,42.5,414.31,54.2,411,67.54s-8.75,24.62-14.63,37-7.43,14.33-7.43,14.33H331.84c-5.27,12.34-13.5,30.76-18.64,42.75-.72,1.69,0,0-1.18,3.1,2,2.81,8.11,1.74,9.34.51a37,37,0,0,0,7.48-10.08c3.74-6.87,9.55-20.47,12.55-27.7h45.76ZM343.49,93.18c2.81.16,9.29,0,10.32.09,2.49-4.64,7.66-15,10.21-21.26.7-1.91,2.81-4.49,0-6.5-4-1-6.2,1-7.23,2.69-4.72,7.88-9,16.81-13.25,25Z"/><path class="cls-1" d="M525.77,190.77c-.94,2.09-2,5.28-4.51,5.28H473.08c3.53-8.11,7.61-17.43,11.05-25.25,22.31-50.62,51.73-117.66,73.93-168.33.88-2.24,0-2.24,8.43-2.24h42.65c-3.46,7.94-83.37,190.54-83.37,190.54Z"/><path class="cls-1" d="M1108.55,27.88c2-5.24,6.65-19.54,8.93-26.06,0,0-.17-.95,6.37-.95,13,0,25,.19,38,0,6.49-.05,7.15-.65,4.9,4.21l-10.6,22.83c-11-.05-44.38.08-47.6,0Z"/><path class="cls-1" d="M197.19,195.83c5.37-11.55,10.69-23,15.51-33.41q19.89-42.93,39.73-85.86c.27-.59,2.94-5.63,3-6.24.18-3.15-6.39-6.69-11.06.76-6.92,12.55-13.23,25.47-19.33,38.46-11.4,24.25-22.25,48.75-33.42,73.07-4.89,10.65-6.43,13.22-6.43,13.22h-48.9c9.22-19.63,18.42-39.06,27.18-57.67q13-27.63,26.07-55.24c-.46-.25,23.19-48.77-1.4-.73l-13.51,22.69c-17,28.67-34.67,59.67-51.8,88.24-1.25,2.09-1.08,2.66-3.26,2.71-14.89,0-47.85-.13-50.37,0,7.36-21.11,25-71.27,24.77-71.4-5.56,9.19-13.65,24.47-19.3,33.6C68,168.78,61.12,179.4,54.48,190.15c-2.37,3.84-2.21,5.57-7.06,5.6-12.87.08-28.84.08-41.62-.05-6.27.13-6.87.25-4.33-5.89,17.32-48.13,36.26-101,53.35-149.17,1.66-4.69,2-5.22,6.92-5.22H97.38c-9.27,25.56-31.95,87.81-31.57,88C70.5,115.68,79.53,98.74,84.18,91c9.48-15.87,18.87-31.79,28.44-47.6,1-1.72,3.27-7.9,4.88-7.95,11.69-.35,24,0,37.35,0-8.71,23.92-31.12,85.52-30.72,85.69,6.73-11.35,19.21-35,26.07-46.31,6.45-10.61,13.34-20.52,20.3-30.79,1.49-2.2,4.76-8.6,7.48-8.6h28.54c4,0,5.68.21,5.82-.33,3.7-8.34,17-35,18.74-35.08h46.16c-5.76,12.47-15.43,31.54-21.84,45.39,3.59-1.64,6.25-2.72,8.79-4,9.09-4.79,18.92-4.83,28.69-4C303.82,38.22,311,49,306.83,59c-10,24.08-20.53,47.94-31.13,71.75-8.77,19.7-18.08,39.16-26.88,58.85-1.86,4.16-2.41,6.17-7.11,6.17H197.2Z"/><path class="cls-1" d="M974.21,35.41c-7.29,18.06-14.12,36.13-20.86,52.86-9.43,23.41-18.94,46.78-28.1,70.29-.94,2.43-3.71,7.89,1,7.89s6.49-.63,7.68-3.12c5.63-11.78,11.1-25.13,16-37.24,11.59-28.46,21.41-57.71,34.8-85.37,1.3-2.69,2.76-5.31,2.76-5.31h45.82l-1.71,5h9.64c2.17-5.47,7.42-19.25,9.94-24.56,0,0,47.84,0,49.2.13-2.91,7.63-6.45,17.05-9.28,24.45,3.28.08,8.06.12,12.92.06,1.07,0,1.91-5,2.9-5,15.23-.07,30.44.12,47.37.12-2.17,6.24-3.86,11.62-5.9,16.88-17.46,45-37,95-54.44,140.06-1.45,3.75-3.44,3.39-10.31,3.2-23.93.16-50.62.16-74.37.16a32.11,32.11,0,0,1-10.74-1.57c-8.65-2.68-12.21-11.39-9.35-20,5.43-16.32,11.52-32.42,17.74-48.46,7.47-19.26,15.67-39,23.49-58.46-6.37,0-7.12-.09-7.12-.09-10.67,26.65-22.7,57-33.3,83.68-5.07,12.75-10.26,25.45-15.12,38.28-1.75,4.6-1.46,6.76-6.37,6.61-12-.35-43.29.16-46,0,.71-2.92,1.35-6.21,2.15-9.53-2.54,1.6-4.28,2.64-6,3.78-10,6.71-21.1,8.13-32.6,6.74-13-1.57-19.39-12.91-14.65-27.25,4.37-13.23,9.77-26.13,15-39.07,11.36-28.08,26-62.45,37.08-90.64,1.87-4.78,0-4.45,8.12-4.45,11.77,0,24,.06,34.43,0,2.3,0,4.71-.22,8.19,0Zm117,32c-6.3-.12-11.67-.12-11.67-.12-5.85,16.54-14.9,39.05-21.28,55.42-5,12.93-9.72,26-14.79,38.92-1.5,3.83-.29,5.11,3.41,5.59,4,.52,5.72-1.16,7.13-4.82,6.77-17.65,13.91-35.16,20.83-52.76,5.47-13.9,10.81-27.86,16.38-42.23Z"/><path class="cls-1" d="M639.71,169.33c-11.63,17-28.49,25.55-48.41,27.44a104.3,104.3,0,0,1-30.48-1.64c-17.51-3.61-23.89-15-18.91-31.93,2.26-7.68,5.78-15,9-22.37.64-1.45,2.71-3.19,4.15-3.21,12.83-.25,25.66-.15,40.11-.15-1.8,4.6-3.25,8.27-4.67,12-1.55,4-3.34,8-4.53,12.2-1.42,5,.79,7.19,5.81,5.72,2.31-.67,5-2.32,6.14-4.31a69.73,69.73,0,0,0,7.2-15.94c.65-2.36-1.15-6.4-3.15-8.28-4.9-4.6-10.54-8.43-15.94-12.49-17.47-13.13-19.86-21.6-11.89-42.17.39-1,6.22-12.73,8.17-16.57,8.27-16.35,22.16-25.49,39.3-29.78a88,88,0,0,1,42-.55c16.7,3.89,23.29,15.7,17.58,31.79q-6.77,19.09-27.06,19.12h-24c1.67-4.46,3-8,4.33-11.57s4.73-9.35,4.39-12.14c-3.31,0-5.55-.55-7.35.1-7.94,2.86-9.49,10.54-11.18,17.28-.73,2.91,1.51,7.6,3.89,10,3.92,4,9.07,6.72,13.65,10,3.7,2.69,7.52,5.25,10.94,8.26,7.16,6.3,10.11,14,7,23.48l-16.13,35.66ZM717.08,0c15.86,0,30.54.06,46.9.06-6,14.33-12.55,30.68-18.71,45.43,4.18-2.26,7.07-3.94,10.06-5.41,11.38-5.61,23.24-7.08,35.31-2.9,8,2.77,12.06,9.45,9.66,17.55A348.39,348.39,0,0,1,787.58,89.6c-10.54,25.33-21.07,50.68-32.45,75.64-9.12,20-24.55,31.88-47.46,32-9.9,0-15.08-2.27-22.38-11.57-.42.06-3.06,7.74-3.18,7.92-1.48,2.35,1.09,2.35-8,2.35H631.74ZM695.74,163.8c-2,3.76,8.52,2.64,9.46,1.24a20.69,20.69,0,0,0,2.8-4.84c3.86-7.77,7.22-15.81,10.57-23.83q13.68-32.79,27.09-65.7c.75-1.84,2.38-4.94,0-6.42-3-2-6.36.67-8,2.43-2.59,2.73-4.1,6.61-5.65,10.19Q718.39,108.35,705,140c-3.21,7.62-5.56,14.36-9.28,23.86Z"/><path class="cls-1" d="M1218.35,46.61l4.85-11.2h48.18c-4.57,12.19-8.78,23.79-13.06,35.13q-20.33,53.85-40.66,107.68c-4.62,12.23-9.13,24.5-13.89,36.67-.49,1.24-.73,2.7-1.47,2.69-15.86-.22-33.84.2-50.45.2l12.73-33.36c-2.91,2.2-4.42,3.23-5.8,4.42-10.4,9-22.81,9.76-35.23,7.25-12.77-2.58-18.06-15.83-13-30.66q6.3-18.51,13.4-36.76,12.66-32.55,25.82-64.91c3.58-8.75,8.79-16.4,17-21.83,19.41-12.82,34.13-11.89,51.6,4.66Zm-9.15,20.25c.63-1.74,1.31-2.94-2-3.8-1.68-.44-4.38-.42-5.34.63a29.14,29.14,0,0,0-5.63,8.61q-9.7,23.81-18.92,47.82c-5.11,13.39-9.94,26.88-14.63,40.41-.63,1.82-3,5.93.45,6.26,4.26,1.55,6-.82,7.35-2.53,2.66-3.29,4.48-7.4,6.06-11.41q12.18-30.9,24-61.93c3-7.89,5.74-15.88,8.68-24.07Z"/><path class="cls-1" d="M1324.56,35.41c-7,18.84-13.51,35.86-19.94,53.18-8.86,23.86-17.75,47.7-26.39,71.63-.65,1.81-.1,5.57,1,6.16a7.11,7.11,0,0,0,6.47-.92,18.87,18.87,0,0,0,4.83-7.5c11.5-30.31,22.81-60.69,34.23-91q5.27-14,10.92-27.86c.63-1.53,1.61-3.65,1.61-3.65h49.41c-3.87,10.81-7.18,20.34-10.74,30q-18.27,49.62-36.65,99.2c-3.25,8.75-6.52,17.49-10.17,26.07-.76,1.77-1.77,5.11-4.58,5.11-14.9,0-30.1.07-44.93,0h-2.45c.49-2.19,1.36-6.44,2.11-9.81-2.37,1.51-3.92,2.43-5.39,3.46-10.23,7.17-21.8,8.69-33.73,7.12-13.45-1.77-19.84-13.78-15-28.42,5.19-15.69,11-31.21,16.74-46.7,9.31-24.88,22.37-58.53,31.65-83.42,1.07-2.89.75-2.65,2.46-2.65h48.54Z"/><path class="cls-1" d="M1471.63,127.29c-3.67,9-6.52,16.56-10.05,24.61-9,20.46-24.11,34.56-45.23,41.58a79.3,79.3,0,0,1-47,.8c-16.7-4.68-25.25-18.94-21-35.93,3.34-13.23,8.12-26.13,12.78-39,5.31-14.7,10.46-29.53,17-43.72,13-28.27,35.53-42.46,66.74-42.58,9.56,0,19.16-.79,28.18,3.75,12.46,6.27,19.12,16,16.39,29.6-3.23,16.13-17,52.51-17,52.51h-60c-4.87,12.81-10.46,28.47-14.77,41.47-.58,1.76-.2,5.42.65,5.73a8.29,8.29,0,0,0,6.58-.48,16.15,16.15,0,0,0,5.83-6.62c3.64-8.38,9.83-23,12.48-31.75h48.47ZM1421.2,93h11.94c1.48-5,6.7-20.22,8-25.23.44-1.73,2.27-4.11-.52-5.66-4.37-2.28-6.55.59-7.34,2.14-4.13,8.15-8.36,20.09-12.06,28.74Z"/><path class="cls-1" d="M800.09,198.18c-8.37,0-16.48-1.91-24.26-4.34-13.39-4.18-19-16.07-14.36-31.25,4.47-14.52,10.13-28.71,15.91-42.78,6.12-14.9,12.18-29.92,19.73-44.12,14-26.33,36.08-40.68,66.44-40.6,7.32,0,14.87.29,21.92,2C905,42,911.29,57,905.64,72.52a893,893,0,0,1-37.38,88.27c-10.5,21.42-37.61,38.1-68.16,37.4Zm9.1-35c-1.27,4.12,7.83,4.58,9.73.67,1.52-3.13.49-.84,1.65-3.4,5.54-12.28,10.76-24.71,15.88-37.17q10.9-26.57,21.4-53.29a9.29,9.29,0,0,0,.67-6.88c-2-3.39-6.44,1.26-7.8,2.83a38.06,38.06,0,0,0-5.82,10.12c-9.85,23.2-32.94,79.63-35.72,87.12Z"/><path class="cls-1" d="M498.32,127.29c-13.33,44-46,76.57-96.38,69.39-22.27-3.18-31.95-19.74-23-41.42,11.11-27,22.58-53.94,36.34-79.6,17.28-32.24,48.33-43.53,81.17-39.11C517.63,39.41,527,53.77,520.88,74c-4.36,14.31-21.46,46-21.46,46l-57.19-.09c-4.5,11.33-11.75,28.16-16.37,39.45-1,2.39-1.23,2.77-2.45,6.31,5.14,1.5,9.41.68,11.1-1.49,3.82-4.91,6.46-10.76,9.43-16.31,1.64-3.07,9.06-20.51,9.06-20.51h45.32ZM454.41,93h10.78c4.38-8,8.34-18.22,11.87-26.65.24-.23-.64-1.51-1.63-2.17-4.52-2.39-6.55,1.29-7.62,3.08C463,75.23,454.41,93,454.41,93Z"/><path class="cls-1" d="M387.24,127.29c-12.18,33.88-31,61.32-67.5,68.67-10.6,2.13-22.35,1.72-33-.39-19.18-3.8-27-18-20.15-36.33,6.92-18.49,15.24-36.5,23.77-54.33,6.46-13.5,13-27.26,21.64-39.35,13.76-19.18,33.7-28.43,57.38-28.63,8-.07,16.25.11,23.92,2C406.74,42.32,414.37,54,411,67.36s-8.76,24.62-14.63,37S389,118.71,389,118.71H331.92c-5.27,12.34-13.51,30.76-18.64,42.75-.72,1.69,0,0-1.18,3.1,2,2.81,8.11,1.74,9.34.51A37.52,37.52,0,0,0,328.92,155c3.74-6.87,9.55-20.47,12.55-27.7h45.77ZM343.57,93c2.81.16,9.29,0,10.32.09,2.5-4.64,7.67-15,10.21-21.26.7-1.91,2.81-4.49,0-6.5-4-1-6.2,1-7.23,2.69-4.72,7.87-9,16.81-13.26,25Z"/><path class="cls-1" d="M525.86,190.55c-.94,2.09-2,5.28-4.51,5.28H473.17c3.53-8.11,7.61-17.43,11.05-25.25C506.53,120,536,52.92,558.15,2.25,559,0,558.19,0,566.58,0h42.65C605.77,8,525.86,190.55,525.86,190.55Z"/><path class="cls-1" d="M1108.64,27.66c2-5.24,6.65-19.54,8.93-26.06,0,0-.17-.95,6.37-.95,13,0,25,.19,38,0,6.49-.05,7.14-.65,4.9,4.21l-10.6,22.83c-11,0-44.38.08-47.6,0Z"/></g></g></g></g></g></svg>